<svg width="169" height="87" viewBox="0 0 169 87" fill="none" xmlns="http://www.w3.org/2000/svg">
<g clip-path="url(#clip0)">
<path d="M76.1987 81.834C75.1662 81.834 74.3815 81.5018 73.8033 80.8789C73.2251 80.2145 72.936 79.3839 72.936 78.3042V69.3343H71.0775V68.2545H72.936V63.8942H74.3815V68.2545H77.4377V69.3343H74.3815V78.3457C74.3815 79.8407 75.0836 80.5882 76.4465 80.5882H77.4377V81.8755H76.1987V81.834Z" fill="#00A0DF"/>
<path d="M82.6828 75.3142C82.6828 77.0583 83.0545 78.3872 83.7979 79.3423C84.5413 80.2559 85.6564 80.7543 87.1019 80.7543C88.5061 80.7543 89.7451 80.2144 90.8602 79.0932L91.934 79.9237C91.2319 80.6297 90.4885 81.1696 89.7451 81.5018C89.0017 81.834 88.0931 82.0001 87.0193 82.0001C85.1608 82.0001 83.7153 81.4187 82.7241 80.2144C81.7329 79.0101 81.2373 77.3075 81.2373 75.0235C81.2373 72.8225 81.7329 71.1199 82.6828 69.8741C83.6327 68.6283 84.9543 68.0469 86.6889 68.0469C88.3822 68.0469 89.7038 68.6283 90.6537 69.8326C91.6036 70.9953 92.0992 72.6564 92.0992 74.6913V75.3557H82.6828V75.3142ZM90.1994 71.5767C89.9103 70.8707 89.456 70.2894 88.7952 69.8741C88.1757 69.4588 87.4736 69.2512 86.6889 69.2512C85.9042 69.2512 85.2021 69.4588 84.5826 69.8741C83.9631 70.2894 83.5088 70.7877 83.261 71.3691C83.0132 71.9505 82.848 72.4073 82.8067 72.7395C82.7241 73.0302 82.7241 73.5285 82.7241 74.1514H90.695C90.695 73.57 90.6537 73.1132 90.6124 72.781C90.4885 72.4488 90.3646 72.0335 90.1994 71.5767Z" fill="#00A0DF"/>
<path d="M100.235 81.8339C99.1615 81.8339 98.3355 81.5017 97.7986 80.8788C97.2617 80.2559 96.9726 79.3838 96.9726 78.3041V61.6931H98.4181V78.2626C98.4181 79.0931 98.5833 79.6745 98.8724 80.0067C99.1615 80.3805 99.6984 80.5466 100.483 80.5466H101.474V81.8339H100.235Z" fill="#00A0DF"/>
<path d="M106.017 75.3142C106.017 77.0583 106.389 78.3872 107.132 79.3423C107.876 80.2559 108.991 80.7543 110.436 80.7543C111.841 80.7543 113.08 80.2144 114.195 79.0932L115.269 79.9237C114.566 80.6297 113.823 81.1696 113.08 81.5018C112.336 81.834 111.428 82.0001 110.354 82.0001C108.495 82.0001 107.05 81.4187 106.059 80.2144C105.067 79.0101 104.572 77.3075 104.572 75.0235C104.572 72.8225 105.067 71.1199 106.017 69.8741C106.967 68.6283 108.289 68.0469 110.023 68.0469C111.717 68.0469 113.038 68.6283 113.988 69.8326C114.938 70.9953 115.434 72.6564 115.434 74.6913V75.3557H106.017V75.3142ZM113.534 71.5767C113.245 70.8707 112.791 70.2894 112.13 69.8741C111.51 69.4588 110.808 69.2512 110.023 69.2512C109.239 69.2512 108.537 69.4588 107.917 69.8741C107.298 70.2894 106.843 70.7877 106.596 71.3691C106.348 71.9505 106.183 72.4073 106.141 72.7395C106.059 73.0302 106.059 73.5285 106.059 74.1514H114.03C114.03 73.57 113.988 73.1132 113.947 72.781C113.864 72.4488 113.74 72.0335 113.534 71.5767Z" fill="#00A0DF"/>
<path d="M125.552 82.0001C123.735 82.0001 122.248 81.3772 121.174 80.1314C120.101 78.8855 119.564 77.1829 119.564 75.0235C119.564 72.8641 120.101 71.1614 121.174 69.9156C122.248 68.6698 123.694 68.0469 125.552 68.0469C126.543 68.0469 127.328 68.213 127.948 68.5037C128.567 68.7944 129.269 69.3342 130.013 70.1648L129.021 71.0784C128.443 70.4139 127.906 69.9571 127.411 69.708C126.915 69.4588 126.296 69.3342 125.552 69.3342C123.983 69.3342 122.826 69.8741 122.124 70.9123C121.422 71.9505 121.051 73.3624 121.051 75.0235C121.051 75.9786 121.133 76.7261 121.257 77.3075C121.381 77.8889 121.753 78.5948 122.331 79.4669C122.909 80.339 124.024 80.7543 125.594 80.7543C126.337 80.7543 126.956 80.6297 127.452 80.3805C127.948 80.1314 128.485 79.6746 129.063 79.0101L130.054 79.9237C129.352 80.7127 128.65 81.2526 127.989 81.5433C127.287 81.834 126.502 82.0001 125.552 82.0001Z" fill="#00A0DF"/>
<path d="M142.981 80.5051C141.99 81.5018 140.751 82.0001 139.223 82.0001C137.695 82.0001 136.538 81.5848 135.712 80.7543C134.886 79.9237 134.349 79.0516 134.143 78.138C133.895 77.2244 133.771 76.1863 133.771 75.0235C133.771 73.8192 133.895 72.781 134.101 71.8674C134.308 70.9953 134.845 70.1232 135.671 69.2927C136.497 68.4621 137.695 68.0469 139.181 68.0469C140.668 68.0469 141.866 68.4621 142.692 69.2927C143.518 70.1232 144.055 70.9953 144.261 71.9089C144.509 72.8225 144.633 73.8607 144.633 75.0235C144.633 76.2278 144.509 77.266 144.303 78.1796C144.096 79.0101 143.642 79.7991 142.981 80.5051ZM142.031 70.4555C141.246 69.6664 140.338 69.2927 139.223 69.2927C138.108 69.2927 137.282 69.5834 136.703 70.1648C136.125 70.7462 135.712 71.3691 135.506 72.0335C135.299 72.698 135.217 73.6946 135.217 74.982C135.217 76.3108 135.299 77.266 135.506 77.9304C135.712 78.5948 136.084 79.2178 136.703 79.7991C137.323 80.3805 138.149 80.6712 139.264 80.6712C140.379 80.6712 141.205 80.3805 141.783 79.7991C142.361 79.2178 142.774 78.5948 142.981 77.9304C143.187 77.266 143.27 76.2693 143.27 74.982C143.27 73.6531 143.187 72.698 142.981 72.0335C142.733 71.4106 142.444 70.8707 142.031 70.4555Z" fill="#00A0DF"/>
<path d="M167.596 81.834V73.3624C167.596 70.6631 166.357 69.2927 163.879 69.2927C162.722 69.2927 161.772 69.6249 161.112 70.3309C160.41 71.0369 160.079 71.9505 160.079 73.1132V81.834H158.634V73.3624C158.634 70.6631 157.395 69.2927 154.875 69.2927C153.678 69.2927 152.728 69.6664 152.067 70.3724C151.406 71.0784 151.034 72.075 151.034 73.3624V81.834H149.589V68.213H151.034V69.8326C152.067 68.6283 153.389 68.0469 155.041 68.0469C157.106 68.0469 158.551 68.8774 159.418 70.5385C160.451 68.8774 162.02 68.0469 164.044 68.0469C164.787 68.0469 165.448 68.1715 166.068 68.3791C166.687 68.5867 167.307 69.0435 168.009 69.708C168.711 70.3724 169.041 71.4937 169.041 73.1132V81.834H167.596Z" fill="#00A0DF"/>
<path d="M26.0191 49.7904H11.3988L9.12732 55.8534H0L14.6615 20.7212H22.8803L37.5005 55.8534H28.3732L26.0191 49.7904ZM23.252 42.4816L18.7089 30.6462L14.2072 42.4816H23.252Z" fill="#004A98"/>
<path d="M68.393 39.4511C68.393 50.3728 62.1979 56.5188 52.3272 56.5188C42.4978 56.5188 36.3028 50.3728 36.3028 39.4511V20.6807H44.9345V39.6172C44.9345 44.9742 47.8255 48.3379 52.3272 48.3379C56.8289 48.3379 59.8025 44.9742 59.8025 39.6172V20.6807H68.4343V39.4511H68.393Z" fill="#004A98"/>
<path d="M93.5034 55.8129L86.978 45.6387H86.9367H80.4526V55.8129H71.8622V20.6807H86.9367C95.5271 20.6807 101.227 25.4563 101.227 33.0143C101.227 37.6239 99.0377 41.3198 95.4032 43.5208L103.539 55.8129H93.5034ZM80.4113 37.79H86.7715C90.0755 37.79 92.6774 35.9212 92.6774 33.0143C92.6774 30.1904 90.0755 28.3632 86.7715 28.3632H80.4113V37.79Z" fill="#004A98"/>
<path d="M113.121 28.2802V34.6754H128.443V42.1088H113.121V48.2134H130.632V55.8129H104.572V20.6807H130.632V28.2802H113.121Z" fill="#004A98"/>
<path d="M156.982 49.7914H142.361L140.09 55.8544H130.963L145.624 20.7222H153.843L168.463 55.8544H159.336L156.982 49.7914ZM154.173 42.4825L149.672 30.6472L145.17 42.4825H154.173Z" fill="#004A98"/>
<path d="M14.9919 12.9981C14.9919 10.9218 16.6852 9.38525 18.7503 9.38525C20.8566 9.38525 22.5912 10.9218 22.5912 12.9981C22.5912 15.1576 20.8566 16.6941 18.7503 16.6941C16.6852 16.6941 14.9919 15.116 14.9919 12.9981Z" fill="#004A98"/>
<path d="M15.9418 2.69928C15.9418 1.16277 17.2221 0 18.7502 0C20.3196 0 21.6413 1.16277 21.6413 2.69928C21.6413 4.31885 20.3196 5.48162 18.7502 5.48162C17.2221 5.48162 15.9418 4.31885 15.9418 2.69928Z" fill="#00A0DF"/>
</g>
<defs>
<clipPath id="clip0">
<rect width="169" height="87" fill="white"/>
</clipPath>
</defs>
</svg>
